<svg width="50" height="50" fill="none" xmlns="http://www.w3.org/2000/svg"><path d="M50 24.815C50 11.22 38.807.2 25 .2S0 11.22 0 24.815C0 38.41 11.193 49.431 25 49.431S50 38.41 50 24.815z" fill="#FFC960"/><path d="M35.813 20.148a1.566 1.566 0 00-1.631-.222l-4.94 2.162-2.876-5.097a1.55 1.55 0 00-.574-.58 1.58 1.58 0 00-1.585 0 1.55 1.55 0 00-.573.58l-2.876 5.097-4.94-2.162a1.585 1.585 0 00-1.632.221 1.538 1.538 0 00-.484.695 1.516 1.516 0 00-.04.842L16.146 32.1a1.511 1.511 0 00.724.97 1.597 1.597 0 001.22.16 26.358 26.358 0 0113.815-.002 1.603 1.603 0 001.22-.159 1.54 1.54 0 00.723-.97l2.49-10.414c.067-.28.054-.571-.039-.843a1.529 1.529 0 00-.486-.694zm-6.911 8.555a.762.762 0 01-.285.518.784.784 0 01-.574.167 29.607 29.607 0 00-6.086 0 .79.79 0 01-.572-.168.762.762 0 01-.115-1.08.785.785 0 01.523-.282c2.132-.22 4.282-.22 6.414 0a.794.794 0 01.525.28.766.766 0 01.17.565z" fill="#543700"/></svg>