<svg width="50" height="50" fill="none" xmlns="http://www.w3.org/2000/svg"><path d="M50 25C50 11.193 38.807 0 25 0S0 11.193 0 25s11.193 25 25 25 25-11.193 25-25z" fill="#FFB4E9"/><path d="M26.563 33.594h-3.125a.781.781 0 100 1.562h3.125a.781.781 0 100-1.562z" fill="#D10094"/><path d="M33.948 26.549l-2.953-3.544a12.164 12.164 0 00-.779-3.406c-1.135-2.95-3.14-4.883-4.235-5.773a1.57 1.57 0 00-1.96-.006c-1.11.888-3.141 2.82-4.287 5.77a11.987 11.987 0 00-.79 3.489l-2.892 3.47a1.574 1.574 0 00-.325 1.339l1.207 5.433a1.562 1.562 0 002.501.88l2.714-2.17h5.702l2.713 2.17a1.555 1.555 0 001.496.254 1.553 1.553 0 001.006-1.134l1.207-5.433a1.571 1.571 0 00-.325-1.34zM18.46 32.981l-1.207-5.433 1.75-2.101c.223 1.825.846 3.693 1.87 5.604l-2.413 1.93zM25 23.047a1.172 1.172 0 110-2.344 1.172 1.172 0 010 2.344zm6.541 9.935l-2.416-1.934c1.01-1.924 1.62-3.808 1.83-5.652l1.794 2.153-1.208 5.433z" fill="#D10094"/></svg>