<svg width="50" height="50" fill="none" xmlns="http://www.w3.org/2000/svg"><path d="M50 24.824C50 11.23 38.807.21 25 .21S0 11.229 0 24.824C0 38.42 11.193 49.44 25 49.44s25-11.02 25-24.616z" fill="#A5BEFF"/><path d="M33.037 17.725l-7.813-2.308a.793.793 0 00-.69.12.774.774 0 00-.315.617v10.41a4.723 4.723 0 00-2.892-1.169 4.736 4.736 0 00-2.995.884 4.611 4.611 0 00-1.764 2.54 4.546 4.546 0 00.252 3.069 4.65 4.65 0 002.156 2.228 4.75 4.75 0 003.1.398 4.697 4.697 0 002.664-1.612A4.569 4.569 0 0025.78 30v-8.197l6.807 2.01a.792.792 0 00.69-.119.773.773 0 00.316-.617v-4.615a.761.761 0 00-.155-.46.782.782 0 00-.402-.277z" fill="#0033B6"/></svg>