<svg width="203" height="28" fill="none" xmlns="http://www.w3.org/2000/svg"><path d="M1.492 24V5.474h7.61c1.276 0 2.403.224 3.381.672.995.447 1.774 1.11 2.338 1.99.563.878.845 1.964.845 3.257 0 1.26-.29 2.329-.87 3.207-.564.88-1.343 1.55-2.338 2.015-.978.447-2.097.671-3.357.671H5.346V24H1.492zm3.854-10.07h3.78c.812 0 1.459-.233 1.94-.697.497-.464.746-1.078.746-1.84 0-.78-.249-1.401-.746-1.865-.481-.465-1.128-.697-1.94-.697h-3.78v5.098zM23.32 24.298c-1.343 0-2.57-.307-3.68-.92a7.03 7.03 0 01-2.612-2.512c-.646-1.078-.97-2.296-.97-3.655 0-1.376.324-2.595.97-3.656a7.031 7.031 0 012.611-2.511c1.111-.614 2.338-.92 3.68-.92 1.343 0 2.562.306 3.656.92a6.98 6.98 0 012.636 2.511c.646 1.061.97 2.28.97 3.656 0 1.359-.323 2.577-.97 3.655a6.98 6.98 0 01-2.636 2.511c-1.094.614-2.313.92-3.655.92zm0-3.357c1.027 0 1.848-.349 2.462-1.045.63-.696.944-1.591.944-2.685 0-1.078-.315-1.965-.945-2.661-.613-.713-1.434-1.07-2.461-1.07-1.012 0-1.832.357-2.462 1.07-.63.696-.945 1.583-.945 2.66 0 1.095.315 1.99.945 2.686.63.696 1.45 1.045 2.462 1.045zM32.072 24V10.423h3.482v2.039c.348-.845.837-1.417 1.467-1.716.646-.315 1.384-.472 2.213-.472h1.417v3.232h-1.79c-.912 0-1.65.282-2.213.846-.564.547-.846 1.326-.846 2.337V24h-3.73zm16.83.15c-1.64 0-2.917-.44-3.83-1.319-.894-.895-1.342-2.138-1.342-3.73v-5.445h-2.337v-3.233h.174c1.442 0 2.163-.696 2.163-2.089v-1.99h3.73v4.079h3.183v3.233H47.46V19.1c0 1.376.77 2.064 2.313 2.064.232 0 .522-.024.87-.074v2.934c-.547.083-1.127.124-1.74.124zm4.31-.15V13.656H50.9v-3.233h2.313v-.398c0-1.608.472-2.851 1.417-3.73.945-.879 2.263-1.318 3.954-1.318.497 0 .937.042 1.318.124v3.183a5.36 5.36 0 00-.82-.074c-1.426 0-2.14.605-2.14 1.815v.398h2.935v3.233h-2.934V24h-3.73zm14.207.299c-1.342 0-2.57-.307-3.68-.92a7.03 7.03 0 01-2.61-2.512c-.648-1.078-.97-2.296-.97-3.655 0-1.376.322-2.595.97-3.656a7.031 7.031 0 012.61-2.511c1.11-.614 2.338-.92 3.68-.92 1.343 0 2.562.306 3.656.92a6.98 6.98 0 012.636 2.511c.646 1.061.97 2.28.97 3.656 0 1.359-.324 2.577-.97 3.655a6.98 6.98 0 01-2.636 2.511c-1.094.614-2.313.92-3.656.92zm0-3.357c1.028 0 1.849-.349 2.462-1.045.63-.696.945-1.591.945-2.685 0-1.078-.315-1.965-.945-2.661-.613-.713-1.434-1.07-2.462-1.07-1.01 0-1.831.357-2.461 1.07-.63.696-.945 1.583-.945 2.66 0 1.095.315 1.99.945 2.686.63.696 1.45 1.045 2.461 1.045zM76.173 24V5.474h3.73V24h-3.73zm5.968-14.796v-3.73h3.73v3.73h-3.73zm0 14.796V10.423h3.73V24h-3.73zm12.483.299c-1.343 0-2.57-.307-3.68-.92a7.032 7.032 0 01-2.611-2.512c-.647-1.078-.97-2.296-.97-3.655 0-1.376.323-2.595.97-3.656a7.032 7.032 0 012.611-2.511c1.11-.614 2.337-.92 3.68-.92s2.562.306 3.656.92a6.984 6.984 0 012.636 2.511c.646 1.061.969 2.28.969 3.656 0 1.359-.323 2.577-.969 3.655a6.984 6.984 0 01-2.636 2.511c-1.094.614-2.313.92-3.656.92zm0-3.357c1.028 0 1.849-.349 2.462-1.045.63-.696.945-1.591.945-2.685 0-1.078-.315-1.965-.945-2.661-.613-.713-1.434-1.07-2.462-1.07-1.011 0-1.832.357-2.462 1.07-.63.696-.945 1.583-.945 2.66 0 1.095.316 1.99.945 2.686.63.696 1.451 1.045 2.462 1.045zm21.95 3.357c-1.326 0-2.561-.24-3.705-.721a9.113 9.113 0 01-2.959-2.015 9.46 9.46 0 01-1.989-3.034c-.464-1.16-.696-2.428-.696-3.804s.232-2.644.696-3.805a8.799 8.799 0 011.964-3.034 8.794 8.794 0 012.959-1.989c1.144-.48 2.388-.721 3.73-.721 1.343 0 2.545.224 3.606.671 1.078.448 1.989 1.045 2.736 1.79.746.747 1.276 1.576 1.591 2.487l-3.407 1.642c-.315-.896-.87-1.633-1.666-2.213-.779-.597-1.732-.896-2.86-.896-1.094 0-2.055.257-2.884.771-.829.514-1.476 1.227-1.94 2.139-.447.895-.671 1.948-.671 3.158s.224 2.271.671 3.183c.464.912 1.111 1.624 1.94 2.138.829.514 1.79.771 2.884.771 1.128 0 2.081-.29 2.86-.87.796-.597 1.351-1.343 1.666-2.238l3.407 1.641c-.315.912-.845 1.74-1.591 2.487-.747.746-1.658 1.343-2.736 1.79-1.061.448-2.263.672-3.606.672zm9.668-.299V10.423h3.481v2.039c.348-.845.837-1.417 1.467-1.716.647-.315 1.385-.472 2.213-.472h1.418v3.232h-1.791c-.911 0-1.649.282-2.213.846-.563.547-.845 1.326-.845 2.337V24h-3.73zm16.195.299c-1.426 0-2.677-.315-3.755-.945a6.896 6.896 0 01-2.487-2.587c-.58-1.077-.87-2.27-.87-3.58 0-1.36.298-2.57.895-3.63a6.885 6.885 0 012.462-2.512c1.044-.614 2.213-.92 3.506-.92 1.277 0 2.421.298 3.432.895a6.731 6.731 0 012.412 2.412c.597.995.895 2.122.895 3.382 0 .265-.016.53-.05.795a2.348 2.348 0 01-.124.647h-9.549c.116.845.464 1.525 1.045 2.039.58.514 1.326.77 2.238.77.663 0 1.226-.132 1.691-.397.48-.265.853-.63 1.119-1.094l2.984 1.417c-.415.995-1.144 1.799-2.189 2.412-1.044.597-2.263.896-3.655.896zm-.249-11.19c-.729 0-1.351.207-1.865.621-.514.415-.862 1.011-1.044 1.79h5.694c-.066-.729-.356-1.309-.87-1.74-.497-.448-1.136-.671-1.915-.671zm12.263 11.19c-1.028 0-1.923-.174-2.685-.523-.746-.364-1.327-.845-1.741-1.442a3.668 3.668 0 01-.597-2.039c0-1.011.381-1.84 1.144-2.487.763-.663 1.832-1.135 3.208-1.417l4.252-.895v-.448c0-.514-.191-.92-.572-1.218-.381-.315-.887-.473-1.517-.473-.663 0-1.251.183-1.765.547-.498.348-.846.83-1.045 1.443l-3.207-1.542c.397-1.127 1.135-2.023 2.213-2.686 1.094-.663 2.362-.995 3.804-.995 1.161 0 2.172.208 3.034.622.879.415 1.558.995 2.039 1.74.497.73.746 1.584.746 2.562V24h-3.481v-1.243c-.514.547-1.086.945-1.716 1.194-.613.232-1.318.348-2.114.348zm-1.168-4.054c0 .415.157.738.472.97.315.232.738.348 1.268.348.846 0 1.559-.265 2.139-.796.58-.53.87-1.177.87-1.94v-.646l-3.581.796c-.779.183-1.168.605-1.168 1.268zm16.732 3.904c-1.641 0-2.917-.439-3.829-1.318-.895-.895-1.343-2.138-1.343-3.73v-5.445h-2.337v-3.233h.174c1.442 0 2.163-.696 2.163-2.089v-1.99h3.73v4.079h3.183v3.233h-3.183V19.1c0 1.376.771 2.064 2.313 2.064.232 0 .522-.024.87-.074v2.934a11.62 11.62 0 01-1.741.124zm9.757.15c-1.343 0-2.57-.307-3.681-.92a7.036 7.036 0 01-2.611-2.512c-.646-1.078-.969-2.296-.969-3.655 0-1.376.323-2.595.969-3.656a7.037 7.037 0 012.611-2.511c1.111-.614 2.338-.92 3.681-.92s2.561.306 3.655.92a6.974 6.974 0 012.636 2.511c.647 1.061.97 2.28.97 3.656 0 1.359-.323 2.577-.97 3.655a6.973 6.973 0 01-2.636 2.511c-1.094.614-2.312.92-3.655.92zm0-3.357c1.028 0 1.848-.349 2.462-1.045.63-.696.944-1.591.944-2.685 0-1.078-.314-1.965-.944-2.661-.614-.713-1.434-1.07-2.462-1.07-1.012 0-1.832.357-2.462 1.07-.63.696-.945 1.583-.945 2.66 0 1.095.315 1.99.945 2.686.63.696 1.45 1.045 2.462 1.045zM188.525 24V10.423h3.482v2.039c.348-.845.837-1.417 1.467-1.716.646-.315 1.384-.472 2.213-.472h1.417v3.232h-1.79c-.912 0-1.649.282-2.213.846-.564.547-.846 1.326-.846 2.337V24h-3.73z" fill="#fff"/><path d="M197.244 24v-3.73h3.73V24h-3.73z" fill="url(#paint0_linear_1_942)"/><defs><linearGradient id="paint0_linear_1_942" x1="195.011" y1="20.537" x2="202.186" y2="20.53" gradientUnits="userSpaceOnUse"><stop offset=".198" stop-color="#B16CEA"/><stop offset=".557" stop-color="#FF5E69"/><stop offset=".828" stop-color="#FF8A56"/><stop offset="1" stop-color="#FFA84B"/></linearGradient></defs></svg>