<svg width="70" height="70" fill="none" xmlns="http://www.w3.org/2000/svg"><path d="M69.022 36.481c0 8.851-3.465 17.34-9.634 23.6-6.168 6.258-14.534 9.774-23.257 9.774S19.042 66.34 12.874 60.08c-6.168-6.259-9.633-14.748-9.633-23.599h65.781z" fill="url(#paint0_linear_1_533)"/><path d="M36.131 31.39c6.25 0 11.317-5.141 11.317-11.483 0-6.342-5.067-11.484-11.317-11.484s-11.317 5.142-11.317 11.484S29.881 31.39 36.131 31.39z" fill="url(#paint1_linear_1_533)"/><path d="M65.781 33.374c0 8.852-3.465 17.34-9.633 23.6-6.168 6.259-14.534 9.775-23.257 9.775-8.724 0-17.09-3.516-23.258-9.775C3.465 50.714 0 42.226 0 33.374h65.781zM32.89 28.283c6.25 0 11.318-5.14 11.318-11.483 0-6.342-5.067-11.483-11.317-11.483S21.574 10.457 21.574 16.8c0 6.342 5.066 11.483 11.317 11.483z" fill="#000"/><defs><linearGradient id="paint0_linear_1_533" x1="-2.261" y1="53.168" x2="61.754" y2="52.938" gradientUnits="userSpaceOnUse"><stop offset=".198" stop-color="#B16CEA"/><stop offset=".557" stop-color="#FF5E69"/><stop offset=".828" stop-color="#FF8A56"/><stop offset="1" stop-color="#FFA84B"/></linearGradient><linearGradient id="paint1_linear_1_533" x1="17.011" y1="17.317" x2="43.837" y2="15.271" gradientUnits="userSpaceOnUse"><stop offset=".198" stop-color="#B16CEA"/><stop offset=".557" stop-color="#FF5E69"/><stop offset=".828" stop-color="#FF8A56"/><stop offset="1" stop-color="#FFA84B"/></linearGradient></defs></svg>