<svg width="70" height="70" fill="none" xmlns="http://www.w3.org/2000/svg"><g clip-path="url(#clip0_1_497)"><path d="M35.339 69.83c-8.598 0-16.845-3.68-22.925-10.227-6.08-6.548-9.496-15.428-9.496-24.688 0-9.26 3.416-18.141 9.496-24.689C18.494 3.678 26.741 0 35.34 0v69.829z" fill="url(#paint0_linear_1_497)"/><path d="M53.818 52.293c-4.28 0-8.385-1.83-11.411-5.09-3.026-3.259-4.726-7.68-4.726-12.288 0-4.61 1.7-9.03 4.726-12.289 3.026-3.259 7.13-5.09 11.41-5.09v34.757z" fill="url(#paint1_linear_1_497)"/><path d="M32.42 69.83c-8.598 0-16.844-3.68-22.924-10.227C3.416 53.055 0 44.175 0 34.915c0-9.26 3.416-18.141 9.496-24.689C15.576 3.678 23.822 0 32.42 0v69.829zM50.9 52.293c-4.28 0-8.385-1.83-11.411-5.09-3.027-3.259-4.727-7.68-4.727-12.288 0-4.61 1.7-9.03 4.727-12.289 3.026-3.259 7.13-5.09 11.41-5.09v34.757z" fill="#000"/></g><defs><linearGradient id="paint0_linear_1_497" x1="19.129" y1="-5.841" x2="19.395" y2="62.114" gradientUnits="userSpaceOnUse"><stop offset=".198" stop-color="#B16CEA"/><stop offset=".557" stop-color="#FF5E69"/><stop offset=".828" stop-color="#FF8A56"/><stop offset="1" stop-color="#FFA84B"/></linearGradient><linearGradient id="paint1_linear_1_497" x1="45.749" y1="14.629" x2="45.882" y2="48.453" gradientUnits="userSpaceOnUse"><stop offset=".198" stop-color="#B16CEA"/><stop offset=".557" stop-color="#FF5E69"/><stop offset=".828" stop-color="#FF8A56"/><stop offset="1" stop-color="#FFA84B"/></linearGradient><clipPath id="clip0_1_497"><path fill="#fff" d="M0 0h70v70H0z"/></clipPath></defs></svg>